<mxfile host="Electron" modified="2024-06-12T10:00:00.537Z" agent="Mozilla/5.0 (Macintosh; Intel Mac OS X 10_15_7) AppleWebKit/537.36 (KHTML, like Gecko) draw.io/24.5.3 Chrome/124.0.6367.207 Electron/30.0.6 Safari/537.36" etag="iCTeBkNn7-0nzyjR-Cr9" version="24.5.3" type="device">
  <diagram name="페이지-1" id="VbG91ufrPFLwyYR6eT2B">
    <mxGraphModel dx="796" dy="578" grid="1" gridSize="10" guides="1" tooltips="1" connect="1" arrows="1" fold="1" page="1" pageScale="1" pageWidth="827" pageHeight="1169" math="0" shadow="0">
      <root>
        <mxCell id="0" />
        <mxCell id="1" parent="0" />
        <mxCell id="eF-h6MT6We_eKRaCnEP1-17" value="" style="endArrow=none;dashed=1;html=1;rounded=0;entryX=0.5;entryY=1;entryDx=0;entryDy=0;fontSize=12;" edge="1" parent="1">
          <mxGeometry width="50" height="50" relative="1" as="geometry">
            <mxPoint x="80" y="418.5094339622642" as="sourcePoint" />
            <mxPoint x="80" y="220.3584905660377" as="targetPoint" />
          </mxGeometry>
        </mxCell>
        <mxCell id="eF-h6MT6We_eKRaCnEP1-83" value="" style="html=1;points=[[0,0,0,0,5],[0,1,0,0,-5],[1,0,0,0,5],[1,1,0,0,-5]];perimeter=orthogonalPerimeter;outlineConnect=0;targetShapes=umlLifeline;portConstraint=eastwest;newEdgeStyle={&quot;curved&quot;:0,&quot;rounded&quot;:0};fontSize=12;container=0;" vertex="1" parent="1">
          <mxGeometry x="70" y="400" width="20" height="340" as="geometry" />
        </mxCell>
        <mxCell id="eF-h6MT6We_eKRaCnEP1-5" value="지하철 노선도 서비스" style="rounded=0;whiteSpace=wrap;html=1;fontSize=12;container=0;" vertex="1" parent="1">
          <mxGeometry x="360" y="80" width="80" height="40" as="geometry" />
        </mxCell>
        <mxCell id="eF-h6MT6We_eKRaCnEP1-6" value="" style="endArrow=none;dashed=1;html=1;rounded=0;entryX=0.5;entryY=1;entryDx=0;entryDy=0;fontSize=12;" edge="1" parent="1" target="eF-h6MT6We_eKRaCnEP1-9">
          <mxGeometry width="50" height="50" relative="1" as="geometry">
            <mxPoint x="80" y="203" as="sourcePoint" />
            <mxPoint x="53.52000000000001" y="180.16981132075472" as="targetPoint" />
          </mxGeometry>
        </mxCell>
        <mxCell id="eF-h6MT6We_eKRaCnEP1-9" value="사용자" style="rounded=0;whiteSpace=wrap;html=1;fontSize=12;container=0;" vertex="1" parent="1">
          <mxGeometry x="40" y="80" width="80" height="40" as="geometry" />
        </mxCell>
        <mxCell id="eF-h6MT6We_eKRaCnEP1-10" value="지하철 운영사" style="rounded=0;whiteSpace=wrap;html=1;fontSize=12;container=0;" vertex="1" parent="1">
          <mxGeometry x="660" y="80" width="80" height="40" as="geometry" />
        </mxCell>
        <mxCell id="eF-h6MT6We_eKRaCnEP1-11" value="" style="endArrow=none;dashed=1;html=1;rounded=0;entryX=0.5;entryY=1;entryDx=0;entryDy=0;fontSize=12;" edge="1" parent="1" source="eF-h6MT6We_eKRaCnEP1-13" target="eF-h6MT6We_eKRaCnEP1-5">
          <mxGeometry width="50" height="50" relative="1" as="geometry">
            <mxPoint x="400" y="796.3962264150942" as="sourcePoint" />
            <mxPoint x="175" y="166.77358490566036" as="targetPoint" />
          </mxGeometry>
        </mxCell>
        <mxCell id="eF-h6MT6We_eKRaCnEP1-12" value="" style="endArrow=none;dashed=1;html=1;rounded=0;entryX=0.5;entryY=1;entryDx=0;entryDy=0;fontSize=12;" edge="1" parent="1" source="eF-h6MT6We_eKRaCnEP1-16" target="eF-h6MT6We_eKRaCnEP1-10">
          <mxGeometry width="50" height="50" relative="1" as="geometry">
            <mxPoint x="640" y="796.3962264150942" as="sourcePoint" />
            <mxPoint x="700" y="139.9811320754717" as="targetPoint" />
          </mxGeometry>
        </mxCell>
        <mxCell id="eF-h6MT6We_eKRaCnEP1-14" value="" style="endArrow=none;dashed=1;html=1;rounded=0;entryX=0.5;entryY=1;entryDx=0;entryDy=0;fontSize=12;" edge="1" parent="1" source="eF-h6MT6We_eKRaCnEP1-27" target="eF-h6MT6We_eKRaCnEP1-13">
          <mxGeometry width="50" height="50" relative="1" as="geometry">
            <mxPoint x="400" y="796.3962264150942" as="sourcePoint" />
            <mxPoint x="400" y="153.37735849056605" as="targetPoint" />
          </mxGeometry>
        </mxCell>
        <mxCell id="eF-h6MT6We_eKRaCnEP1-13" value="" style="html=1;points=[[0,0,0,0,5],[0,1,0,0,-5],[1,0,0,0,5],[1,1,0,0,-5]];perimeter=orthogonalPerimeter;outlineConnect=0;targetShapes=umlLifeline;portConstraint=eastwest;newEdgeStyle={&quot;curved&quot;:0,&quot;rounded&quot;:0};fontSize=12;container=0;" vertex="1" parent="1">
          <mxGeometry x="390" y="150" width="20" height="20" as="geometry" />
        </mxCell>
        <mxCell id="eF-h6MT6We_eKRaCnEP1-15" value="" style="html=1;points=[[0,0,0,0,5],[0,1,0,0,-5],[1,0,0,0,5],[1,1,0,0,-5]];perimeter=orthogonalPerimeter;outlineConnect=0;targetShapes=umlLifeline;portConstraint=eastwest;newEdgeStyle={&quot;curved&quot;:0,&quot;rounded&quot;:0};fontSize=12;container=0;" vertex="1" parent="1">
          <mxGeometry x="70" y="190" width="20" height="20" as="geometry" />
        </mxCell>
        <mxCell id="eF-h6MT6We_eKRaCnEP1-18" value="" style="endArrow=none;dashed=1;html=1;rounded=0;entryX=0.5;entryY=1;entryDx=0;entryDy=0;fontSize=12;" edge="1" parent="1" target="eF-h6MT6We_eKRaCnEP1-16">
          <mxGeometry width="50" height="50" relative="1" as="geometry">
            <mxPoint x="700" y="803" as="sourcePoint" />
            <mxPoint x="700" y="153.37735849056605" as="targetPoint" />
          </mxGeometry>
        </mxCell>
        <mxCell id="eF-h6MT6We_eKRaCnEP1-16" value="" style="html=1;points=[[0,0,0,0,5],[0,1,0,0,-5],[1,0,0,0,5],[1,1,0,0,-5]];perimeter=orthogonalPerimeter;outlineConnect=0;targetShapes=umlLifeline;portConstraint=eastwest;newEdgeStyle={&quot;curved&quot;:0,&quot;rounded&quot;:0};fontSize=12;container=0;" vertex="1" parent="1">
          <mxGeometry x="690" y="150" width="20" height="20" as="geometry" />
        </mxCell>
        <mxCell id="eF-h6MT6We_eKRaCnEP1-25" value="" style="endArrow=classic;html=1;rounded=0;fontSize=12;" edge="1" parent="1" source="eF-h6MT6We_eKRaCnEP1-16" target="eF-h6MT6We_eKRaCnEP1-13">
          <mxGeometry width="50" height="50" relative="1" as="geometry">
            <mxPoint x="680" y="163" as="sourcePoint" />
            <mxPoint x="420" y="163" as="targetPoint" />
          </mxGeometry>
        </mxCell>
        <mxCell id="eF-h6MT6We_eKRaCnEP1-26" value="지하철 노선도 및 운행 정보 등록&lt;br style=&quot;font-size: 12px;&quot;&gt;(열차 시간표, 운임요금 등)" style="edgeLabel;html=1;align=center;verticalAlign=middle;resizable=0;points=[];fontSize=12;container=0;" vertex="1" connectable="0" parent="eF-h6MT6We_eKRaCnEP1-25">
          <mxGeometry relative="1" as="geometry">
            <mxPoint as="offset" />
          </mxGeometry>
        </mxCell>
        <mxCell id="eF-h6MT6We_eKRaCnEP1-28" value="" style="endArrow=none;dashed=1;html=1;rounded=0;entryX=0.5;entryY=1;entryDx=0;entryDy=0;fontSize=12;" edge="1" parent="1" source="eF-h6MT6We_eKRaCnEP1-32" target="eF-h6MT6We_eKRaCnEP1-27">
          <mxGeometry width="50" height="50" relative="1" as="geometry">
            <mxPoint x="400" y="796.3962264150942" as="sourcePoint" />
            <mxPoint x="400" y="180.16981132075472" as="targetPoint" />
          </mxGeometry>
        </mxCell>
        <mxCell id="eF-h6MT6We_eKRaCnEP1-27" value="" style="html=1;points=[[0,0,0,0,5],[0,1,0,0,-5],[1,0,0,0,5],[1,1,0,0,-5]];perimeter=orthogonalPerimeter;outlineConnect=0;targetShapes=umlLifeline;portConstraint=eastwest;newEdgeStyle={&quot;curved&quot;:0,&quot;rounded&quot;:0};fontSize=12;container=0;" vertex="1" parent="1">
          <mxGeometry x="390" y="190" width="20" height="20" as="geometry" />
        </mxCell>
        <mxCell id="eF-h6MT6We_eKRaCnEP1-29" value="" style="endArrow=classic;html=1;rounded=0;fontSize=12;exitX=1.005;exitY=0.5;exitDx=0;exitDy=0;exitPerimeter=0;" edge="1" parent="1" source="eF-h6MT6We_eKRaCnEP1-15" target="eF-h6MT6We_eKRaCnEP1-27">
          <mxGeometry width="50" height="50" relative="1" as="geometry">
            <mxPoint x="100" y="203" as="sourcePoint" />
            <mxPoint x="380" y="203" as="targetPoint" />
          </mxGeometry>
        </mxCell>
        <mxCell id="eF-h6MT6We_eKRaCnEP1-30" value="지하철 노선도 조회" style="edgeLabel;html=1;align=center;verticalAlign=middle;resizable=0;points=[];fontSize=12;container=0;" vertex="1" connectable="0" parent="eF-h6MT6We_eKRaCnEP1-29">
          <mxGeometry relative="1" as="geometry">
            <mxPoint as="offset" />
          </mxGeometry>
        </mxCell>
        <mxCell id="eF-h6MT6We_eKRaCnEP1-31" value="" style="html=1;points=[[0,0,0,0,5],[0,1,0,0,-5],[1,0,0,0,5],[1,1,0,0,-5]];perimeter=orthogonalPerimeter;outlineConnect=0;targetShapes=umlLifeline;portConstraint=eastwest;newEdgeStyle={&quot;curved&quot;:0,&quot;rounded&quot;:0};fontSize=12;container=0;" vertex="1" parent="1">
          <mxGeometry x="70" y="240" width="20" height="50" as="geometry" />
        </mxCell>
        <mxCell id="eF-h6MT6We_eKRaCnEP1-33" value="" style="endArrow=none;dashed=1;html=1;rounded=0;fontSize=12;" edge="1" parent="1" source="eF-h6MT6We_eKRaCnEP1-89" target="eF-h6MT6We_eKRaCnEP1-32">
          <mxGeometry width="50" height="50" relative="1" as="geometry">
            <mxPoint x="400" y="404.50943396226415" as="sourcePoint" />
            <mxPoint x="400" y="323" as="targetPoint" />
          </mxGeometry>
        </mxCell>
        <mxCell id="eF-h6MT6We_eKRaCnEP1-32" value="" style="html=1;points=[[0,0,0,0,5],[0,1,0,0,-5],[1,0,0,0,5],[1,1,0,0,-5]];perimeter=orthogonalPerimeter;outlineConnect=0;targetShapes=umlLifeline;portConstraint=eastwest;newEdgeStyle={&quot;curved&quot;:0,&quot;rounded&quot;:0};fontSize=12;container=0;" vertex="1" parent="1">
          <mxGeometry x="390" y="240" width="20" height="50" as="geometry" />
        </mxCell>
        <mxCell id="eF-h6MT6We_eKRaCnEP1-36" value="" style="endArrow=classic;html=1;rounded=0;exitX=1;exitY=0;exitDx=0;exitDy=5;exitPerimeter=0;entryX=0;entryY=0;entryDx=0;entryDy=5;entryPerimeter=0;fontSize=12;" edge="1" parent="1" source="eF-h6MT6We_eKRaCnEP1-31" target="eF-h6MT6We_eKRaCnEP1-32">
          <mxGeometry width="50" height="50" relative="1" as="geometry">
            <mxPoint x="122.5" y="227.0566037735849" as="sourcePoint" />
            <mxPoint x="407.5" y="227.0566037735849" as="targetPoint" />
          </mxGeometry>
        </mxCell>
        <mxCell id="eF-h6MT6We_eKRaCnEP1-37" value="역 정보 조회" style="edgeLabel;html=1;align=center;verticalAlign=middle;resizable=0;points=[];fontSize=12;container=0;" vertex="1" connectable="0" parent="eF-h6MT6We_eKRaCnEP1-36">
          <mxGeometry relative="1" as="geometry">
            <mxPoint as="offset" />
          </mxGeometry>
        </mxCell>
        <mxCell id="eF-h6MT6We_eKRaCnEP1-38" value="" style="endArrow=classic;html=1;rounded=0;exitX=0;exitY=1;exitDx=0;exitDy=-5;exitPerimeter=0;entryX=1;entryY=1;entryDx=0;entryDy=-5;entryPerimeter=0;fontSize=12;" edge="1" parent="1" source="eF-h6MT6We_eKRaCnEP1-32" target="eF-h6MT6We_eKRaCnEP1-31">
          <mxGeometry width="50" height="50" relative="1" as="geometry">
            <mxPoint x="325" y="314.1320754716981" as="sourcePoint" />
            <mxPoint x="205" y="381.1132075471698" as="targetPoint" />
          </mxGeometry>
        </mxCell>
        <mxCell id="eF-h6MT6We_eKRaCnEP1-39" value="역 정보 화면&lt;br style=&quot;font-size: 12px;&quot;&gt;(도착시간, 출구 정보 등)" style="edgeLabel;html=1;align=center;verticalAlign=middle;resizable=0;points=[];fontSize=12;container=0;" vertex="1" connectable="0" parent="eF-h6MT6We_eKRaCnEP1-38">
          <mxGeometry relative="1" as="geometry">
            <mxPoint as="offset" />
          </mxGeometry>
        </mxCell>
        <mxCell id="eF-h6MT6We_eKRaCnEP1-41" value="" style="endArrow=none;dashed=1;html=1;rounded=0;fontSize=12;" edge="1" parent="1" source="eF-h6MT6We_eKRaCnEP1-83">
          <mxGeometry width="50" height="50" relative="1" as="geometry">
            <mxPoint x="69" y="769.6037735849056" as="sourcePoint" />
            <mxPoint x="80" y="803" as="targetPoint" />
          </mxGeometry>
        </mxCell>
        <mxCell id="eF-h6MT6We_eKRaCnEP1-45" value="" style="endArrow=none;dashed=1;html=1;rounded=0;entryX=0.5;entryY=1;entryDx=0;entryDy=0;fontSize=12;" edge="1" parent="1">
          <mxGeometry width="50" height="50" relative="1" as="geometry">
            <mxPoint x="400" y="803" as="sourcePoint" />
            <mxPoint x="400" y="474.88679245283015" as="targetPoint" />
          </mxGeometry>
        </mxCell>
        <mxCell id="eF-h6MT6We_eKRaCnEP1-53" value="opt&amp;nbsp;" style="shape=umlFrame;whiteSpace=wrap;html=1;pointerEvents=0;recursiveResize=0;container=0;collapsible=0;width=90;height=35;fontSize=12;" vertex="1" parent="1">
          <mxGeometry x="60" y="330" width="580" height="330" as="geometry" />
        </mxCell>
        <mxCell id="eF-h6MT6We_eKRaCnEP1-75" value="" style="endArrow=none;html=1;rounded=0;exitX=0.001;exitY=0.548;exitDx=0;exitDy=0;exitPerimeter=0;fontSize=12;entryX=0.999;entryY=0.548;entryDx=0;entryDy=0;entryPerimeter=0;" edge="1" parent="1" source="eF-h6MT6We_eKRaCnEP1-53" target="eF-h6MT6We_eKRaCnEP1-53">
          <mxGeometry width="50" height="50" relative="1" as="geometry">
            <mxPoint x="85" y="505.6792452830189" as="sourcePoint" />
            <mxPoint x="640" y="523" as="targetPoint" />
          </mxGeometry>
        </mxCell>
        <mxCell id="eF-h6MT6We_eKRaCnEP1-76" value="" style="html=1;points=[[0,0,0,0,5],[0,1,0,0,-5],[1,0,0,0,5],[1,1,0,0,-5]];perimeter=orthogonalPerimeter;outlineConnect=0;targetShapes=umlLifeline;portConstraint=eastwest;newEdgeStyle={&quot;curved&quot;:0,&quot;rounded&quot;:0};fontSize=12;container=0;" vertex="1" parent="1">
          <mxGeometry x="80" y="680" width="20" height="50" as="geometry" />
        </mxCell>
        <mxCell id="eF-h6MT6We_eKRaCnEP1-80" value="" style="endArrow=classic;html=1;rounded=0;exitX=1;exitY=0;exitDx=0;exitDy=5;exitPerimeter=0;edgeStyle=orthogonalEdgeStyle;entryX=1;entryY=1;entryDx=0;entryDy=-5;entryPerimeter=0;fontSize=12;" edge="1" parent="1" source="eF-h6MT6We_eKRaCnEP1-76" target="eF-h6MT6We_eKRaCnEP1-76">
          <mxGeometry width="50" height="50" relative="1" as="geometry">
            <mxPoint x="93" y="696.3907547169812" as="sourcePoint" />
            <mxPoint x="100.5" y="727.8718867924529" as="targetPoint" />
            <Array as="points">
              <mxPoint x="100" y="690" />
              <mxPoint x="120" y="690" />
              <mxPoint x="120" y="725" />
            </Array>
          </mxGeometry>
        </mxCell>
        <mxCell id="eF-h6MT6We_eKRaCnEP1-82" value="도착 시간 공유" style="edgeLabel;html=1;align=center;verticalAlign=middle;resizable=0;points=[];fontSize=12;container=0;" vertex="1" connectable="0" parent="eF-h6MT6We_eKRaCnEP1-80">
          <mxGeometry relative="1" as="geometry">
            <mxPoint x="40" as="offset" />
          </mxGeometry>
        </mxCell>
        <mxCell id="eF-h6MT6We_eKRaCnEP1-85" value="" style="endArrow=classic;html=1;rounded=0;exitX=1;exitY=0;exitDx=0;exitDy=5;exitPerimeter=0;entryX=0;entryY=0;entryDx=0;entryDy=5;entryPerimeter=0;fontSize=12;" edge="1" parent="1" source="eF-h6MT6We_eKRaCnEP1-93" target="eF-h6MT6We_eKRaCnEP1-89">
          <mxGeometry width="50" height="50" relative="1" as="geometry">
            <mxPoint x="131.5" y="299.37735849056605" as="sourcePoint" />
            <mxPoint x="416.5" y="299.37735849056605" as="targetPoint" />
          </mxGeometry>
        </mxCell>
        <mxCell id="eF-h6MT6We_eKRaCnEP1-86" value="최소 시간 경로 요청" style="edgeLabel;html=1;align=center;verticalAlign=middle;resizable=0;points=[];fontSize=12;container=0;" vertex="1" connectable="0" parent="eF-h6MT6We_eKRaCnEP1-85">
          <mxGeometry relative="1" as="geometry">
            <mxPoint as="offset" />
          </mxGeometry>
        </mxCell>
        <mxCell id="eF-h6MT6We_eKRaCnEP1-87" value="" style="endArrow=classic;html=1;rounded=0;exitX=0;exitY=1;exitDx=0;exitDy=-5;exitPerimeter=0;entryX=1;entryY=1;entryDx=0;entryDy=-5;entryPerimeter=0;fontSize=12;" edge="1" parent="1" source="eF-h6MT6We_eKRaCnEP1-89" target="eF-h6MT6We_eKRaCnEP1-93">
          <mxGeometry width="50" height="50" relative="1" as="geometry">
            <mxPoint x="131.5" y="393.1509433962264" as="sourcePoint" />
            <mxPoint x="416.5" y="393.1509433962264" as="targetPoint" />
          </mxGeometry>
        </mxCell>
        <mxCell id="eF-h6MT6We_eKRaCnEP1-88" value="탐색 결과 화면&lt;div style=&quot;font-size: 12px;&quot;&gt;(경로, 도착 시간, 예상 운임)&lt;/div&gt;" style="edgeLabel;html=1;align=center;verticalAlign=middle;resizable=0;points=[];fontSize=12;container=0;" vertex="1" connectable="0" parent="eF-h6MT6We_eKRaCnEP1-87">
          <mxGeometry relative="1" as="geometry">
            <mxPoint as="offset" />
          </mxGeometry>
        </mxCell>
        <mxCell id="eF-h6MT6We_eKRaCnEP1-91" value="" style="endArrow=classic;html=1;rounded=0;exitX=1.029;exitY=0.3;exitDx=0;exitDy=0;exitPerimeter=0;edgeStyle=orthogonalEdgeStyle;fontSize=12;" edge="1" parent="1" source="eF-h6MT6We_eKRaCnEP1-89" target="eF-h6MT6We_eKRaCnEP1-90">
          <mxGeometry width="50" height="50" relative="1" as="geometry">
            <mxPoint x="304" y="426.64150943396226" as="sourcePoint" />
            <mxPoint x="499" y="386.45283018867923" as="targetPoint" />
            <Array as="points">
              <mxPoint x="440" y="430" />
              <mxPoint x="440" y="460" />
            </Array>
          </mxGeometry>
        </mxCell>
        <mxCell id="eF-h6MT6We_eKRaCnEP1-92" value="최소 시간 경로 탐색 및&lt;br style=&quot;font-size: 12px;&quot;&gt;운임 산출" style="edgeLabel;html=1;align=center;verticalAlign=middle;resizable=0;points=[];fontSize=12;container=0;" vertex="1" connectable="0" parent="eF-h6MT6We_eKRaCnEP1-91">
          <mxGeometry relative="1" as="geometry">
            <mxPoint x="60" y="5" as="offset" />
          </mxGeometry>
        </mxCell>
        <mxCell id="eF-h6MT6We_eKRaCnEP1-93" value="" style="html=1;points=[[0,0,0,0,5],[0,1,0,0,-5],[1,0,0,0,5],[1,1,0,0,-5]];perimeter=orthogonalPerimeter;outlineConnect=0;targetShapes=umlLifeline;portConstraint=eastwest;newEdgeStyle={&quot;curved&quot;:0,&quot;rounded&quot;:0};fontSize=12;container=0;" vertex="1" parent="1">
          <mxGeometry x="80" y="410" width="20" height="70" as="geometry" />
        </mxCell>
        <mxCell id="eF-h6MT6We_eKRaCnEP1-66" value="" style="html=1;points=[[0,0,0,0,5],[0,1,0,0,-5],[1,0,0,0,5],[1,1,0,0,-5]];perimeter=orthogonalPerimeter;outlineConnect=0;targetShapes=umlLifeline;portConstraint=eastwest;newEdgeStyle={&quot;curved&quot;:0,&quot;rounded&quot;:0};fontSize=12;container=0;" vertex="1" parent="1">
          <mxGeometry x="80" y="560" width="20" height="70" as="geometry" />
        </mxCell>
        <mxCell id="eF-h6MT6We_eKRaCnEP1-67" value="" style="endArrow=classic;html=1;rounded=0;exitX=1;exitY=0;exitDx=0;exitDy=5;exitPerimeter=0;entryX=0;entryY=0;entryDx=0;entryDy=5;entryPerimeter=0;fontSize=12;" edge="1" parent="1" source="eF-h6MT6We_eKRaCnEP1-66" target="eF-h6MT6We_eKRaCnEP1-71">
          <mxGeometry width="50" height="50" relative="1" as="geometry">
            <mxPoint x="122.5" y="449.83132075471696" as="sourcePoint" />
            <mxPoint x="407.5" y="449.83132075471696" as="targetPoint" />
          </mxGeometry>
        </mxCell>
        <mxCell id="eF-h6MT6We_eKRaCnEP1-68" value="최소 환승 경로 요청" style="edgeLabel;html=1;align=center;verticalAlign=middle;resizable=0;points=[];fontSize=12;container=0;" vertex="1" connectable="0" parent="eF-h6MT6We_eKRaCnEP1-67">
          <mxGeometry relative="1" as="geometry">
            <mxPoint as="offset" />
          </mxGeometry>
        </mxCell>
        <mxCell id="eF-h6MT6We_eKRaCnEP1-69" value="" style="endArrow=classic;html=1;rounded=0;exitX=0;exitY=1;exitDx=0;exitDy=-5;exitPerimeter=0;entryX=1;entryY=1;entryDx=0;entryDy=-5;entryPerimeter=0;fontSize=12;" edge="1" parent="1" source="eF-h6MT6We_eKRaCnEP1-71" target="eF-h6MT6We_eKRaCnEP1-66">
          <mxGeometry width="50" height="50" relative="1" as="geometry">
            <mxPoint x="122.5" y="543.6049056603773" as="sourcePoint" />
            <mxPoint x="407.5" y="543.6049056603773" as="targetPoint" />
          </mxGeometry>
        </mxCell>
        <mxCell id="eF-h6MT6We_eKRaCnEP1-70" value="탐색 결과 화면&lt;br style=&quot;font-size: 12px;&quot;&gt;(경로, 도착 시간, 예상 운임)" style="edgeLabel;html=1;align=center;verticalAlign=middle;resizable=0;points=[];fontSize=12;container=0;" vertex="1" connectable="0" parent="eF-h6MT6We_eKRaCnEP1-69">
          <mxGeometry relative="1" as="geometry">
            <mxPoint as="offset" />
          </mxGeometry>
        </mxCell>
        <mxCell id="eF-h6MT6We_eKRaCnEP1-71" value="" style="html=1;points=[[0,0,0,0,5],[0,1,0,0,-5],[1,0,0,0,5],[1,1,0,0,-5]];perimeter=orthogonalPerimeter;outlineConnect=0;targetShapes=umlLifeline;portConstraint=eastwest;newEdgeStyle={&quot;curved&quot;:0,&quot;rounded&quot;:0};fontSize=12;container=0;" vertex="1" parent="1">
          <mxGeometry x="390" y="560" width="20" height="70" as="geometry" />
        </mxCell>
        <mxCell id="eF-h6MT6We_eKRaCnEP1-72" value="" style="html=1;points=[[0,0,0,0,5],[0,1,0,0,-5],[1,0,0,0,5],[1,1,0,0,-5]];perimeter=orthogonalPerimeter;outlineConnect=0;targetShapes=umlLifeline;portConstraint=eastwest;newEdgeStyle={&quot;curved&quot;:0,&quot;rounded&quot;:0};fontSize=12;container=0;" vertex="1" parent="1">
          <mxGeometry x="400" y="600" width="20" height="20" as="geometry" />
        </mxCell>
        <mxCell id="eF-h6MT6We_eKRaCnEP1-73" value="" style="endArrow=classic;html=1;rounded=0;exitX=1.029;exitY=0.3;exitDx=0;exitDy=0;exitPerimeter=0;edgeStyle=orthogonalEdgeStyle;fontSize=12;" edge="1" parent="1" source="eF-h6MT6We_eKRaCnEP1-71" target="eF-h6MT6We_eKRaCnEP1-72">
          <mxGeometry width="50" height="50" relative="1" as="geometry">
            <mxPoint x="295" y="577.0954716981132" as="sourcePoint" />
            <mxPoint x="490" y="536.9067924528301" as="targetPoint" />
            <Array as="points">
              <mxPoint x="440" y="580" />
              <mxPoint x="440" y="610" />
            </Array>
          </mxGeometry>
        </mxCell>
        <mxCell id="eF-h6MT6We_eKRaCnEP1-74" value="최소 환승 경로 탐색 및&lt;br style=&quot;font-size: 12px;&quot;&gt;운임 산출" style="edgeLabel;html=1;align=center;verticalAlign=middle;resizable=0;points=[];fontSize=12;container=0;" vertex="1" connectable="0" parent="eF-h6MT6We_eKRaCnEP1-73">
          <mxGeometry relative="1" as="geometry">
            <mxPoint x="60" y="5" as="offset" />
          </mxGeometry>
        </mxCell>
        <mxCell id="eF-h6MT6We_eKRaCnEP1-65" value="&lt;div style=&quot;font-size: 12px;&quot;&gt;[경로 탐색 방식 == 최소 환승]&lt;br style=&quot;font-size: 12px;&quot;&gt;&lt;/div&gt;" style="edgeLabel;html=1;align=center;verticalAlign=middle;resizable=0;points=[];fontSize=12;container=0;" vertex="1" connectable="0" parent="1">
          <mxGeometry x="210" y="530" as="geometry" />
        </mxCell>
        <mxCell id="eF-h6MT6We_eKRaCnEP1-89" value="" style="html=1;points=[[0,0,0,0,5],[0,1,0,0,-5],[1,0,0,0,5],[1,1,0,0,-5]];perimeter=orthogonalPerimeter;outlineConnect=0;targetShapes=umlLifeline;portConstraint=eastwest;newEdgeStyle={&quot;curved&quot;:0,&quot;rounded&quot;:0};fontSize=12;container=0;" vertex="1" parent="1">
          <mxGeometry x="390" y="410" width="20" height="70" as="geometry" />
        </mxCell>
        <mxCell id="eF-h6MT6We_eKRaCnEP1-84" value="&lt;div style=&quot;font-size: 12px;&quot;&gt;[경로 탐색 방식 == 최소 시간]&lt;br style=&quot;font-size: 12px;&quot;&gt;&lt;/div&gt;" style="edgeLabel;html=1;align=center;verticalAlign=middle;resizable=0;points=[];fontSize=12;container=0;" vertex="1" connectable="0" parent="1">
          <mxGeometry x="210" y="380" as="geometry" />
        </mxCell>
        <mxCell id="eF-h6MT6We_eKRaCnEP1-90" value="" style="html=1;points=[[0,0,0,0,5],[0,1,0,0,-5],[1,0,0,0,5],[1,1,0,0,-5]];perimeter=orthogonalPerimeter;outlineConnect=0;targetShapes=umlLifeline;portConstraint=eastwest;newEdgeStyle={&quot;curved&quot;:0,&quot;rounded&quot;:0};fontSize=12;container=0;" vertex="1" parent="1">
          <mxGeometry x="400" y="450" width="20" height="20" as="geometry" />
        </mxCell>
      </root>
    </mxGraphModel>
  </diagram>
</mxfile>
